<?xml version="1.0" standalone="no"?>
<!DOCTYPE svg PUBLIC "-//W3C//DTD SVG 1.0//EN" 
           "http://www.w3.org/TR/2001/REC-SVG-20010904/DTD/svg10.dtd">
<svg xmlns="http://www.w3.org/2000/svg" height="400" width="400" version="1.0">
  <desc>Shapes</desc>
    <rect x="10" y="10" width="80" height="80" style="fill: #f60;" />
  
    <rect x="10" y="120" width="50" height="50" style="fill: #3366ff;" />
    <rect x="40" y="150" width="50" height="50" style="fill: #d60818;" />
    
    
    <rect x="50" y="250" width="40" height="40" style="fill: #66ff33;" />
    <rect x="10" y="210" width="40" height="40" style="fill: #3366ff;" />
    <rect x="30" y="230" width="40" height="40" style="fill: #ff3366;" />
    
    
    <rect x="40" y="350" width="35" height="35" style="fill: #66ff33;" />
    <rect x="5" y="310" width="35" height="35" style="fill: #906;" />
    <rect x="20" y="360" width="35" height="35" style="fill: #90c;" />
    <rect x="60" y="330" width="35" height="35" style="fill: #f36;" />
    
    
    <polygon points="110,10 150,90 190,10" style="fill: #99252F;"/>
    
    <polygon points="110,170 150,110 190,170" style="fill: #3B4E99;"/>
    <polygon points="110,130 150,190 190,130" style="fill: #3B4E99;"/>
    
    <polygon points="110,260 130,220 150,260" style="fill: #993996;"/>
    <polygon points="190,290 150,240 190,240" style="fill: #00FF00;"/>
    <polygon points="128,280 180,250 170,290" style="fill: #3B4E99;"/>
    
    <polygon points="105,345 130,305 155,345" style="fill: #993996;"/>
    <polygon points="145,345 170,305 195,345" style="fill: #3B4E99;"/>
    <polygon points="145,395 170,355 195,395" style="fill: #00FF00;"/>
    <polygon points="105,395 130,355 155,395" style="fill: #3B4E99;"/>
    
    
    <circle cx="225" cy="25" r="20" style="fill: #993996;" />
    <circle cx="225" cy="75" r="20" style="fill: #99252F;" />
    <circle cx="275" cy="25" r="20" style="fill: #3B4E99;" />
    <circle cx="275" cy="75" r="20" style="fill: #3B4E99;" />
    
    <circle cx="230" cy="150" r="20" style="fill: #993996;" />
    <circle cx="260" cy="135" r="20" style="fill: #99252F;" />
    <circle cx="270" cy="170" r="20" style="fill: #3B4E99;" />
    
    <circle cx="240" cy="240" r="20" style="fill: #00FF00;" />
    <circle cx="260" cy="260" r="20" style="fill: #0000FF;" />
    
    <circle cx="250" cy="350" r="40" style="fill: #d60818;" />
    
    
    <rect x="310" y="10" width="80" height="80" style="fill: #d60818;" />
    <circle cx="350" cy="50" r="30" style="fill: #ffffff;" />
    
    <rect x="310" y="110" width="80" height="80" style="fill: #ff3;" />
    
    <rect x="310" y="210" width="80" height="80" style="fill: #00FF00;" />
    
    <rect x="310" y="310" width="80" height="80" style="fill: #0000FF;" />
    

</svg>
